<svg xmlns="http://www.w3.org/2000/svg" fill="white" viewBox="0 0 24 24">
  <path d="M12 0C5.37 0 0 5.37 0 12c0 5.3 3.438 9.8 8.205 11.387.6.112.82-.262.82-.58 
  0-.287-.012-1.243-.018-2.255-3.338.726-4.042-1.61-4.042-1.61-.546-1.385-1.333-1.754-1.333-1.754-1.09-.745.083-.73.083-.73 
  1.205.085 1.84 1.237 1.84 1.237 1.07 1.834 2.81 1.304 3.495.997.107-.776.42-1.305.763-1.606-2.665-.303-5.467-1.334-5.467-5.933 
  0-1.312.468-2.382 1.236-3.222-.124-.303-.536-1.524.117-3.176 0 0 1.008-.322 3.3 1.23A11.52 11.52 0 0 1 12 5.8c1.02.005 
  2.045.138 3.003.404 2.29-1.552 3.297-1.23 3.297-1.23.655 1.652.243 2.873.12 3.176.77.84 
  1.235 1.91 1.235 3.222 0 4.61-2.806 5.628-5.478 5.926.43.37.823 1.1.823 2.217 
  0 1.6-.015 2.888-.015 3.283 0 .321.216.697.825.578C20.565 21.796 24 17.297 24 
  12c0-6.63-5.37-12-12-12z"></path>
</svg>
